<svg width="142" height="46" viewBox="0 0 142 46" fill="none" xmlns="http://www.w3.org/2000/svg">
<path d="M36.376 21.9883L30.3413 18.0854L25.0609 22.472L26.821 27.5882L36.376 21.9883Z" fill="black"/>
<path d="M26.8211 27.9276C26.7808 27.9276 26.7423 27.9208 26.7037 27.9073C26.6099 27.8716 26.5361 27.797 26.5042 27.7002L24.7441 22.584C24.6972 22.4499 24.7391 22.3006 24.848 22.2106L30.1284 17.8241C30.2408 17.7307 30.4 17.7205 30.5224 17.8003L36.5571 21.7033C36.656 21.7677 36.7147 21.878 36.7113 21.9968C36.708 22.1156 36.646 22.2242 36.5437 22.2836L26.9887 27.8835C26.9367 27.914 26.8797 27.9293 26.8211 27.9293V27.9276ZM25.4549 22.5857L27.0055 27.0893L35.7324 21.9748L30.3665 18.5045L25.4549 22.584V22.5857Z" fill="white"/>
<path d="M22.9655 4.00079V28.267C17.6416 31.4437 12.3176 34.6203 6.99359 37.7987L7.0003 13.6021L22.9655 4.00249V4.00079Z" fill="black"/>
<path d="M6.99359 38.1381C6.93659 38.1381 6.8796 38.1228 6.82763 38.094C6.7237 38.0329 6.65833 37.9209 6.65833 37.7987L6.66503 13.6021C6.66503 13.4816 6.72705 13.3713 6.82931 13.3102L22.7945 3.71065C22.8985 3.64786 23.0276 3.64616 23.1315 3.70725C23.2354 3.76834 23.3008 3.88034 23.3008 4.00252V28.2687C23.3008 28.3892 23.2388 28.4995 23.1365 28.5606L7.16457 38.0923C7.11261 38.1228 7.05394 38.1398 6.99359 38.1398V38.1381ZM7.33556 13.7955L7.32885 37.2048L22.6303 28.0736V4.59814L7.33556 13.7955Z" fill="white"/>
<path d="M20.384 21.3503C20.3807 29.4158 20.379 37.4831 20.3773 45.5486C18.1662 44.2658 15.9569 42.9846 13.7458 41.7017V31.6236C11.4962 30.2796 9.24657 28.9356 6.99695 27.5899C6.99695 30.9923 6.99528 34.3964 6.9936 37.7987C4.78422 36.5158 2.57315 35.2346 0.36377 33.9518V9.56677C2.57651 10.9124 4.78924 12.2564 7.0003 13.6021C7.0003 16.4767 6.99863 19.3513 6.99863 22.2259C9.24825 23.5444 11.4962 24.8647 13.7458 26.1815V17.3167C15.9585 18.6607 18.1713 20.0063 20.384 21.3503Z" fill="black"/>
<path d="M20.3773 45.888C20.3203 45.888 20.2616 45.8727 20.2113 45.8439L13.5798 41.9969C13.4759 41.9359 13.4105 41.8239 13.4105 41.7017V31.817C11.3839 30.6071 9.35888 29.3955 7.33221 28.1839C7.33221 31.3877 7.33054 34.5932 7.32886 37.7987C7.32886 37.9192 7.26516 38.0312 7.16123 38.0923C7.0573 38.1534 6.9299 38.1534 6.82596 38.0923L3.58397 36.2104C2.45413 35.5554 1.32597 34.9003 0.196135 34.2453C0.0922034 34.1842 0.0285034 34.0722 0.0285034 33.9518V9.56677C0.0285034 9.44459 0.0938798 9.33089 0.199488 9.2715C0.305096 9.21041 0.434172 9.21381 0.536427 9.27659L3.04084 10.7987C4.41878 11.637 5.79503 12.4736 7.17296 13.3119C7.27354 13.373 7.33556 13.4833 7.33556 13.6021V22.0308L9.76622 23.4579C10.9816 24.1706 12.1952 24.8833 13.4105 25.5943V17.3184C13.4105 17.1962 13.4759 17.0825 13.5798 17.0231C13.6855 16.962 13.8145 16.9637 13.9168 17.0282L20.555 21.0618C20.6556 21.1229 20.7176 21.2332 20.7176 21.3537C20.7142 28.6845 20.7126 36.0169 20.7109 43.3477V45.552C20.7109 45.6725 20.6472 45.7845 20.5433 45.8456C20.4913 45.8761 20.4326 45.8914 20.3756 45.8914L20.3773 45.888ZM14.0811 41.5048L20.042 44.9632V43.3443C20.0437 36.0763 20.0454 28.8083 20.0487 21.5421L14.0811 17.9157V26.1815C14.0811 26.302 14.0174 26.4157 13.9134 26.4751C13.8095 26.5361 13.6821 26.5361 13.5782 26.4751C12.1952 25.6656 10.8122 24.8545 9.43096 24.0433L6.83099 22.5195C6.72706 22.4584 6.66336 22.3464 6.66336 22.2259V13.7938C5.34243 12.9895 4.01981 12.1851 2.69552 11.3808L0.69903 10.1675V33.7566C1.77187 34.3794 2.84471 35.0022 3.91756 35.6232L6.65833 37.2133C6.65833 34.0061 6.66169 30.7972 6.66169 27.5899C6.66169 27.4678 6.72706 27.3558 6.83099 27.2947C6.93493 27.2336 7.064 27.2353 7.16793 27.2981C9.41755 28.6437 11.6672 29.9877 13.9168 31.3317C14.019 31.3928 14.0811 31.5031 14.0811 31.6236V41.5048Z" fill="white"/>
<path d="M0.335266 9.51075C5.5989 6.45287 10.8642 3.39669 16.1278 0.338806C18.4076 1.5589 20.6857 2.7807 22.9655 4.0008L7.0003 13.6004L0.335266 9.51075Z" fill="black"/>
<path d="M7.0003 13.9415C6.93995 13.9415 6.8796 13.9245 6.82596 13.8922L0.160926 9.80093C0.0603474 9.73815 0 9.62615 0 9.50567C0 9.38518 0.0653763 9.27488 0.167632 9.21549L15.9619 0.0452403C16.0608 -0.0124556 16.1832 -0.0158495 16.2854 0.0401495L23.1231 3.70214C23.2304 3.75984 23.2991 3.87183 23.3008 3.99401C23.3041 4.11619 23.2404 4.23158 23.1365 4.29437L7.17128 13.8939C7.11931 13.9262 7.05897 13.9415 7.0003 13.9415ZM0.995732 9.51754L7.00365 13.205L22.2816 4.01777L16.1345 0.725712L0.995732 9.51754Z" fill="white"/>
<path d="M26.6534 42.0122C24.5865 43.2 22.5179 44.3879 20.451 45.5758V21.3096C25.7599 18.1414 31.0672 14.9749 36.3761 11.8067V17.746L26.8211 23.3459V27.5882L36.3761 21.9883V27.7579L26.7406 33.3052C26.7121 36.207 26.6819 39.1104 26.6534 42.0122Z" fill="white"/>
<path d="M20.451 45.9152C20.3924 45.9152 20.3337 45.8999 20.2817 45.8694C20.1778 45.8083 20.1158 45.6963 20.1158 45.5758V21.3096C20.1158 21.1891 20.1778 21.0788 20.2801 21.0177L36.2051 11.5149C36.309 11.4538 36.4364 11.4521 36.542 11.5132C36.6459 11.5743 36.7113 11.6863 36.7113 11.8084V17.7477C36.7113 17.8682 36.6476 17.9802 36.5437 18.0413L27.1563 23.5428V27.0011L36.2084 21.6965C36.3123 21.6354 36.4397 21.6354 36.5437 21.6965C36.6476 21.7576 36.7113 21.8696 36.7113 21.9901V27.7597C36.7113 27.8818 36.6459 27.9938 36.542 28.0549L27.0742 33.5055L26.9887 42.019C26.9887 42.1395 26.9233 42.2515 26.8194 42.3109L20.617 45.8745C20.565 45.9033 20.508 45.9186 20.451 45.9186V45.9152ZM20.7863 21.5047V44.9938L26.3198 41.8137L26.4053 33.3002C26.4053 33.1797 26.4707 33.0677 26.5746 33.0083L36.0391 27.5594V22.5755L26.987 27.8801C26.8831 27.9412 26.7557 27.9412 26.6517 27.8801C26.5478 27.8191 26.4841 27.7071 26.4841 27.5866V23.3442C26.4841 23.2237 26.5478 23.1117 26.6517 23.0507L36.0391 17.5492V12.399L20.7846 21.5014L20.7863 21.5047Z" fill="white"/>
<path d="M13.7458 17.3167C19.2223 14.2367 24.6972 11.1551 30.1737 8.07513C32.2406 9.31899 34.3092 10.5645 36.3761 11.8084C31.0672 14.9766 25.7599 18.1431 20.4511 21.3112C18.2165 19.9791 15.9803 18.6488 13.7458 17.3167Z" fill="black"/>
<path d="M20.451 21.649C20.3924 21.649 20.3337 21.6337 20.2817 21.6015L13.5765 17.6069C13.4725 17.5458 13.4105 17.4321 13.4105 17.3099C13.4105 17.1877 13.4776 17.0757 13.5832 17.018L30.0111 7.77652C30.115 7.71713 30.2424 7.71883 30.3447 7.78161L36.547 11.5149C36.6493 11.576 36.7113 11.688 36.7113 11.8067C36.7113 11.9255 36.6476 12.0375 36.547 12.0986L20.622 21.6015C20.5701 21.632 20.5114 21.649 20.451 21.649ZM14.4213 17.3252L20.451 20.9176L35.7189 11.8067L30.1687 8.46548L14.4213 17.3252Z" fill="white"/>
<path d="M43.3125 46C43.071 46 42.875 45.7808 42.875 45.5107V2.2585C42.875 1.98842 43.071 1.76923 43.3125 1.76923C43.554 1.76923 43.75 1.98842 43.75 2.2585V45.5107C43.75 45.7808 43.554 46 43.3125 46Z" fill="white"/>
<path d="M49 20.5172V7.55658H51.9816V20.5172H49ZM51.7435 15.2036V12.6674H57.9982V15.2036H51.7435ZM57.7802 20.5172V7.55658H60.7439V20.5172H57.7802Z" fill="white"/>
<path d="M67.1633 20.517V15.2215L67.8397 17.0347L62.188 7.5542H65.3521L69.6687 14.8116H67.8575L72.192 7.5542H75.0824L69.4663 17.0347L70.1427 15.2215V20.517H67.1611H67.1633Z" fill="white"/>
<path d="M76.5464 20.517V7.55646H82.089C83.235 7.55646 84.2229 7.74566 85.0528 8.12182C85.8828 8.49798 86.5214 9.03857 86.9731 9.74133C87.4248 10.4441 87.6495 11.2775 87.6495 12.2415C87.6495 13.2056 87.4225 14.0525 86.9731 14.7508C86.5214 15.449 85.8806 15.9874 85.0528 16.3703C84.2229 16.7532 83.235 16.9447 82.089 16.9447H78.1751L79.528 15.5932V20.5193H76.5464V20.517ZM79.5258 15.9266L78.1729 14.5008H81.9222C82.8233 14.5008 83.5064 14.3025 83.9715 13.9084C84.4365 13.5142 84.6657 12.9578 84.6657 12.2415C84.6657 11.5253 84.4343 10.9734 83.9715 10.5837C83.5086 10.1941 82.8255 10.0004 81.9222 10.0004H78.1729L79.5258 8.57456V15.9243V15.9266Z" fill="white"/>
<path d="M90.1528 20.517V7.55646H99.8274V9.96432H93.0965V18.1114H100.065V20.5193H90.1528V20.517ZM92.8785 15.1112V12.7596H99.0419V15.1112H92.8785Z" fill="white"/>
<path d="M102.829 20.517V7.55646H108.298C110.078 7.55646 111.462 7.97316 112.45 8.80657C113.438 9.63997 113.932 10.7842 113.932 12.2415C113.932 13.2169 113.707 14.0525 113.256 14.7508C112.804 15.449 112.163 15.9784 111.336 16.3433C110.506 16.7081 109.518 16.8906 108.372 16.8906H104.458L105.811 15.5954V20.5215H102.829V20.517ZM105.811 15.9266L104.458 14.5008H108.207C109.108 14.5008 109.791 14.3025 110.256 13.9084C110.719 13.5142 110.951 12.9578 110.951 12.2415C110.951 11.5253 110.719 10.9734 110.256 10.5837C109.794 10.1941 109.11 10.0004 108.207 10.0004H104.458L105.811 8.57456V15.9243V15.9266ZM110.986 20.517L107.766 15.8139H110.948L114.168 20.517H110.986Z" fill="white"/>
<path d="M49.5674 39.4376V26.4771H58.3475V27.6618H50.9225V39.4376H49.5696H49.5674ZM50.7734 33.9394V32.7546H57.5398V33.9394H50.7734Z" fill="white"/>
<path d="M66.9786 39.5503C66.0151 39.5503 65.1229 39.3881 64.2996 39.0592C63.4763 38.7326 62.7643 38.2686 62.1591 37.6695C61.5561 37.0703 61.0866 36.3743 60.7506 35.577C60.4146 34.7796 60.2477 33.9079 60.2477 32.9574C60.2477 32.0068 60.4146 31.1329 60.7506 30.3378C61.0866 29.5404 61.5561 28.8444 62.1591 28.2452C62.7621 27.6461 63.4719 27.1843 64.2907 26.8577C65.1073 26.5311 66.004 26.3667 66.9786 26.3667C67.9532 26.3667 68.8321 26.5311 69.6487 26.8577C70.4653 27.1843 71.1751 27.6438 71.7803 28.2362C72.3833 28.8286 72.8528 29.5269 73.1888 30.3288C73.5248 31.1306 73.6916 32.0068 73.6916 32.9574C73.6916 33.9079 73.5248 34.7841 73.1888 35.586C72.8528 36.3878 72.3833 37.0861 71.7803 37.6785C71.1773 38.2709 70.4653 38.7304 69.6487 39.057C68.8321 39.3836 67.9421 39.548 66.9786 39.548V39.5503ZM66.9786 38.3272C67.7462 38.3272 68.456 38.1943 69.1102 37.9285C69.7622 37.6627 70.3296 37.2866 70.8102 36.7978C71.2908 36.3113 71.6668 35.7414 71.9361 35.0949C72.2053 34.4462 72.3388 33.7345 72.3388 32.9574C72.3388 32.1803 72.2053 31.4662 71.9361 30.8198C71.6668 30.1711 71.293 29.6035 70.8102 29.1169C70.3273 28.6304 69.7622 28.2542 69.1102 27.9885C68.4583 27.7227 67.7485 27.5898 66.9786 27.5898C66.2087 27.5898 65.4967 27.7227 64.8381 27.9885C64.1795 28.2542 63.6054 28.6304 63.1181 29.1169C62.6308 29.6057 62.2525 30.1733 61.9833 30.8198C61.7141 31.4685 61.5806 32.1803 61.5806 32.9574C61.5806 33.7345 61.7141 34.4327 61.9833 35.0859C62.2525 35.7414 62.6286 36.3113 63.1181 36.7978C63.6054 37.2866 64.1795 37.6627 64.8381 37.9285C65.4967 38.1943 66.2109 38.3272 66.9786 38.3272Z" fill="white"/>
<path d="M82.6899 39.5502C81.7264 39.5502 80.8364 39.388 80.0198 39.0592C79.2032 38.7326 78.4956 38.2731 77.8971 37.6807C77.2985 37.0883 76.8335 36.3923 76.4975 35.5882C76.1615 34.7863 75.9946 33.9101 75.9946 32.9596C75.9946 32.009 76.1615 31.1328 76.4975 30.331C76.8335 29.5291 77.303 28.8308 77.906 28.2384C78.509 27.646 79.2188 27.1865 80.0376 26.8599C80.8542 26.5333 81.7442 26.3689 82.7077 26.3689C83.6711 26.3689 84.5055 26.5266 85.3221 26.8419C86.1387 27.1573 86.8285 27.628 87.3892 28.2587L86.5304 29.1281C86.0052 28.5853 85.4267 28.1934 84.7926 27.9524C84.1584 27.7114 83.4753 27.592 82.7433 27.592C81.9756 27.592 81.2614 27.7249 80.6028 27.9907C79.9441 28.2564 79.3701 28.6326 78.8828 29.1191C78.3955 29.6079 78.0128 30.1755 77.7391 30.822C77.4654 31.4707 77.3274 32.1825 77.3274 32.9596C77.3274 33.7367 77.4654 34.4507 77.7391 35.0971C78.0128 35.7458 78.3955 36.3135 78.8828 36.8C79.3701 37.2888 79.9441 37.6649 80.6028 37.9307C81.2614 38.1965 81.9756 38.3294 82.7433 38.3294C83.5109 38.3294 84.1584 38.2055 84.7926 37.96C85.4267 37.7122 86.0052 37.318 86.5304 36.7752L87.3892 37.6446C86.8285 38.2731 86.1387 38.7506 85.3221 39.0704C84.5055 39.3925 83.6266 39.5525 82.6877 39.5525L82.6899 39.5502Z" fill="white"/>
<path d="M95.6576 39.5503C94.0244 39.5503 92.7383 39.075 91.7993 38.1245C90.8603 37.1739 90.3908 35.7661 90.3908 33.9034V26.4793H91.7437V33.8493C91.7437 35.3787 92.0841 36.5095 92.7672 37.237C93.4503 37.9645 94.4137 38.3294 95.6576 38.3294C96.9014 38.3294 97.8826 37.9645 98.5657 37.237C99.2488 36.5095 99.5893 35.3787 99.5893 33.8493V26.4793H100.907V33.9034C100.907 35.7684 100.439 37.1739 99.5069 38.1245C98.5746 39.075 97.2908 39.5503 95.6576 39.5503Z" fill="white"/>
<path d="M108.919 39.5503C107.969 39.5503 107.057 39.3926 106.184 39.0772C105.312 38.7619 104.638 38.3587 104.164 37.8654L104.694 36.809C105.145 37.2528 105.751 37.6267 106.514 37.9285C107.275 38.2303 108.078 38.3812 108.919 38.3812C109.76 38.3812 110.379 38.2799 110.886 38.0749C111.391 37.8722 111.765 37.5974 112.001 37.2505C112.239 36.9059 112.357 36.523 112.357 36.1018C112.357 35.595 112.214 35.1895 111.927 34.8787C111.64 34.5701 111.267 34.3268 110.801 34.1466C110.339 33.9687 109.827 33.811 109.266 33.6736C108.705 33.5385 108.145 33.3921 107.584 33.2389C107.023 33.0835 106.507 32.8785 106.038 32.6195C105.568 32.3604 105.19 32.0181 104.903 31.5924C104.616 31.1667 104.473 30.608 104.473 29.9165C104.473 29.2746 104.64 28.6845 104.976 28.1484C105.312 27.6123 105.826 27.1798 106.523 26.8532C107.217 26.5266 108.107 26.3622 109.193 26.3622C109.911 26.3622 110.626 26.4635 111.333 26.6685C112.041 26.8712 112.65 27.1528 113.162 27.5109L112.704 28.6034C112.154 28.234 111.574 27.9614 110.957 27.788C110.341 27.6145 109.747 27.529 109.175 27.529C108.407 27.529 107.773 27.6348 107.272 27.8443C106.772 28.0538 106.402 28.3353 106.167 28.6867C105.929 29.0381 105.811 29.4368 105.811 29.8805C105.811 30.3873 105.953 30.795 106.24 31.1036C106.527 31.4122 106.905 31.6532 107.375 31.8266C107.844 32.0001 108.358 32.1532 108.921 32.2884C109.482 32.4235 110.04 32.5722 110.595 32.7321C111.149 32.892 111.66 33.0993 112.132 33.3515C112.602 33.6038 112.98 33.9417 113.267 34.3606C113.554 34.7796 113.696 35.3292 113.696 36.0094C113.696 36.6378 113.525 37.2212 113.185 37.7596C112.842 38.2956 112.321 38.7281 111.62 39.0547C110.919 39.3813 110.02 39.5458 108.924 39.5458L108.919 39.5503Z" fill="white"/>
<path d="M117.041 39.4376V26.4771H125.821V27.6618H118.396V38.2528H126.097V39.4376H117.043H117.041ZM118.247 33.4394V32.2726H125.015V33.4394H118.247Z" fill="white"/>
<path d="M129.679 39.4376V26.4771H134.892C136.259 26.4771 137.456 26.7518 138.486 27.3014C139.516 27.851 140.317 28.6124 140.891 29.5877C141.465 30.563 141.75 31.687 141.75 32.9573C141.75 34.2277 141.463 35.3517 140.891 36.327C140.317 37.3023 139.516 38.0636 138.486 38.6132C137.456 39.1628 136.256 39.4376 134.892 39.4376H129.679ZM131.032 38.2528H134.819C135.954 38.2528 136.937 38.0276 137.774 37.5771C138.608 37.1266 139.258 36.5027 139.721 35.7076C140.184 34.9125 140.415 33.9957 140.415 32.9573C140.415 31.919 140.184 30.9887 139.721 30.1981C139.258 29.4075 138.608 28.7881 137.774 28.3376C136.939 27.8871 135.954 27.6618 134.819 27.6618H131.032V38.2528Z" fill="white"/>
</svg>
