<svg width="118" height="45" viewBox="0 0 118 45" fill="none" xmlns="http://www.w3.org/2000/svg">
<path d="M36.0704 21.5104L30.0864 17.6923L24.8503 21.9835L26.5957 26.9885L36.0704 21.5104Z" fill="white"/>
<path d="M26.5957 27.3205C26.5558 27.3205 26.5176 27.3139 26.4793 27.3006C26.3863 27.2657 26.3131 27.1927 26.2815 27.098L24.5362 22.093C24.4897 21.9619 24.5312 21.8158 24.6393 21.7278L29.8753 17.4366C29.9866 17.3453 30.1446 17.3353 30.2659 17.4133L36.2499 21.2314C36.348 21.2945 36.4062 21.4024 36.4028 21.5186C36.3995 21.6348 36.338 21.7411 36.2366 21.7992L26.7619 27.2773C26.7104 27.3072 26.6539 27.3221 26.5957 27.3221V27.3205ZM25.241 22.0947L26.7785 26.5004L35.4321 21.497L30.1113 18.1022L25.241 22.093V22.0947Z" fill="black"/>
<path d="M22.7725 3.91382V27.6525C17.4933 30.7601 12.2141 33.8677 6.93481 36.977L6.94146 13.3064L22.7725 3.91548V3.91382Z" fill="black"/>
<path d="M6.93474 37.3091C6.87822 37.3091 6.82171 37.2941 6.77018 37.2659C6.66712 37.2061 6.60229 37.0966 6.60229 36.977L6.60894 13.3064C6.60894 13.1886 6.67045 13.0807 6.77184 13.0209L22.6029 3.63001C22.706 3.56859 22.834 3.56693 22.937 3.62669C23.0401 3.68645 23.1049 3.79601 23.1049 3.91554V27.6542C23.1049 27.7721 23.0434 27.88 22.942 27.9397L7.10429 37.2642C7.05276 37.2941 6.99458 37.3107 6.93474 37.3107V37.3091ZM7.27384 13.4957L7.26719 36.396L22.44 27.4633V4.49821L7.27384 13.4957Z" fill="black"/>
<path d="M20.2126 20.8861C20.2093 28.7763 20.2076 36.6682 20.206 44.5584C18.0135 43.3034 15.8227 42.0501 13.6302 40.7951V30.9361C11.3995 29.6213 9.16875 28.3065 6.93804 26.9901C6.93804 30.3185 6.93638 33.6486 6.93471 36.977C4.7439 35.722 2.55141 34.4686 0.360596 33.2136V9.35876C2.55474 10.6752 4.74888 11.9899 6.94136 13.3064C6.94136 16.1185 6.9397 18.9306 6.9397 21.7427C9.17041 23.0326 11.3995 24.3241 13.6302 25.6123V16.9402C15.8243 18.255 18.0185 19.5714 20.2126 20.8861Z" fill="white"/>
<path d="M20.2059 44.8905C20.1494 44.8905 20.0912 44.8755 20.0413 44.8473L13.4655 41.084C13.3625 41.0242 13.2977 40.9147 13.2977 40.7952V31.1254C11.288 29.9418 9.28005 28.7565 7.27041 27.5712C7.27041 30.7054 7.26875 33.8412 7.26709 36.977C7.26709 37.0949 7.20392 37.2045 7.10086 37.2642C6.9978 37.324 6.87147 37.324 6.76842 37.2642L3.55366 35.4232C2.43332 34.7825 1.31464 34.1417 0.194299 33.5009C0.0912409 33.4411 0.0280762 33.3316 0.0280762 33.2137V9.35883C0.0280762 9.23931 0.0929031 9.12809 0.197624 9.06998C0.302344 9.01022 0.430336 9.01354 0.531732 9.07496L3.0151 10.564C4.38145 11.3841 5.74615 12.2025 7.1125 13.0226C7.21223 13.0823 7.27373 13.1902 7.27373 13.3064V21.5519L9.68397 22.948C10.8891 23.6452 12.0925 24.3424 13.2977 25.038V16.9419C13.2977 16.8224 13.3625 16.7112 13.4655 16.6531C13.5703 16.5933 13.6982 16.595 13.7996 16.6581L20.3821 20.604C20.4818 20.6638 20.5433 20.7717 20.5433 20.8895C20.54 28.0609 20.5383 35.234 20.5367 42.4054V44.5618C20.5367 44.6797 20.4735 44.7892 20.3704 44.849C20.3189 44.8789 20.2607 44.8938 20.2042 44.8938L20.2059 44.8905ZM13.9625 40.6026L19.8734 43.9858V42.4021C19.8751 35.2921 19.8768 28.1821 19.8801 21.0738L13.9625 17.5263V25.6124C13.9625 25.7302 13.8994 25.8414 13.7963 25.8995C13.6933 25.9593 13.5669 25.9593 13.4639 25.8995C12.0925 25.1077 10.7212 24.3142 9.35152 23.5207L6.7734 22.03C6.67034 21.9702 6.60718 21.8607 6.60718 21.7428V13.494C5.29734 12.7071 3.98584 11.9203 2.67268 11.1334L0.692968 9.94649V33.0228C1.75679 33.632 2.82062 34.2413 3.88445 34.8489L6.60219 36.4043C6.60219 33.2668 6.60552 30.1277 6.60552 26.9902C6.60552 26.8707 6.67034 26.7611 6.7734 26.7013C6.87646 26.6416 7.00445 26.6432 7.10751 26.7047C9.33822 28.0211 11.5689 29.3358 13.7996 30.6506C13.901 30.7104 13.9625 30.8183 13.9625 30.9361V40.6026Z" fill="black"/>
<path d="M0.33252 9.30398C5.55192 6.31257 10.773 3.32283 15.9924 0.331421C18.253 1.52499 20.512 2.72023 22.7726 3.9138L6.94154 13.3047L0.33252 9.30398Z" fill="white"/>
<path d="M6.94147 13.6384C6.88163 13.6384 6.82179 13.6218 6.7686 13.5902L0.159574 9.58787C0.0598402 9.52645 0 9.41688 0 9.29902C0 9.18116 0.0648269 9.07325 0.166223 9.01515L15.8277 0.0442568C15.9258 -0.0121848 16.0472 -0.0155049 16.1486 0.0392767L22.9288 3.62166C23.0352 3.6781 23.1033 3.78766 23.105 3.90719C23.1083 4.02671 23.0451 4.13959 22.9421 4.20101L7.11102 13.5919C7.05949 13.6234 6.99965 13.6384 6.94147 13.6384ZM0.987364 9.31064L6.94479 12.9179L22.0943 3.93043L15.999 0.709936L0.987364 9.31064Z" fill="black"/>
<path d="M26.4295 41.0989C24.38 42.2609 22.3288 43.423 20.2793 44.585V20.8463C25.5436 17.747 30.8062 14.6494 36.0705 11.55V17.3602L26.5958 22.8384V26.9885L36.0705 21.5103V27.1545L26.516 32.5812C26.4877 35.4199 26.4578 38.2602 26.4295 41.0989Z" fill="#00A890"/>
<path d="M20.2792 44.917C20.221 44.917 20.1629 44.9021 20.1113 44.8722C20.0083 44.8124 19.9468 44.7029 19.9468 44.585V20.8463C19.9468 20.7285 20.0083 20.6206 20.1097 20.5608L35.9009 11.2645C36.0039 11.2048 36.1302 11.2031 36.235 11.2629C36.338 11.3226 36.4028 11.4322 36.4028 11.5517V17.3619C36.4028 17.4798 36.3397 17.5893 36.2366 17.6491L26.9281 23.031V26.4141L35.9042 21.2248C36.0072 21.1651 36.1336 21.1651 36.2366 21.2248C36.3397 21.2846 36.4028 21.3941 36.4028 21.512V27.1562C36.4028 27.2757 36.338 27.3853 36.235 27.445L26.8467 32.7771L26.7619 41.1055C26.7619 41.2234 26.6971 41.333 26.594 41.3911L20.4438 44.8772C20.3923 44.9054 20.3357 44.9203 20.2792 44.9203V44.917ZM20.6117 21.0372V44.0156L26.0987 40.9047L26.1835 32.5762C26.1835 32.4584 26.2483 32.3488 26.3513 32.2907L35.7363 26.9603V22.0847L26.7603 27.274C26.6572 27.3338 26.5309 27.3338 26.4278 27.274C26.3248 27.2143 26.2616 27.1047 26.2616 26.9868V22.8367C26.2616 22.7189 26.3248 22.6093 26.4278 22.5495L35.7363 17.1677V12.1294L20.61 21.0339L20.6117 21.0372Z" fill="black"/>
<path d="M13.6304 16.9403C19.0609 13.9273 24.4897 10.9126 29.9202 7.89966C31.9697 9.11647 34.0209 10.3349 36.0705 11.5518C30.8062 14.6511 25.5436 17.7487 20.2793 20.848C18.0635 19.5449 15.8461 18.2434 13.6304 16.9403Z" fill="white"/>
<path d="M20.2792 21.1783C20.221 21.1783 20.1629 21.1634 20.1113 21.1318L13.4624 17.2241C13.3594 17.1643 13.2979 17.0531 13.2979 16.9336C13.2979 16.8141 13.3643 16.7045 13.4691 16.648L29.7589 7.60743C29.862 7.54933 29.9883 7.55099 30.0897 7.61241L36.2399 11.2645C36.3413 11.3243 36.4028 11.4338 36.4028 11.55C36.4028 11.6662 36.3397 11.7758 36.2399 11.8356L20.4488 21.1318C20.3972 21.1617 20.3391 21.1783 20.2792 21.1783ZM14.3002 16.9485L20.2792 20.4628L35.4188 11.55L29.9152 8.28141L14.3002 16.9485Z" fill="black"/>
<path d="M42.6826 45C42.4533 45 42.2671 44.8141 42.2671 44.585V7.89792C42.2671 7.66884 42.4533 7.48291 42.6826 7.48291C42.912 7.48291 43.0982 7.66884 43.0982 7.89792V44.585C43.0982 44.8141 42.912 45 42.6826 45Z" fill="black"/>
<path d="M48.7117 24.1996V14.6477H50.9391V24.1996H48.7117ZM50.7612 20.2836V18.4144H55.4337V20.2836H50.7612ZM55.2708 24.1996V14.6477H57.4849V24.1996H55.2708Z" fill="black"/>
<path d="M62.2805 24.1996V20.2968L62.7858 21.6331L58.5637 14.646H60.9274L64.1521 19.9947H62.7991L66.0371 14.646H68.1963L64.0009 21.6331L64.5062 20.2968V24.1996H62.2788H62.2805Z" fill="black"/>
<path d="M69.29 24.1996V14.6477H73.4307C74.2867 14.6477 75.0247 14.7871 75.6447 15.0644C76.2648 15.3416 76.7418 15.74 77.0792 16.258C77.4167 16.7759 77.5846 17.3901 77.5846 18.1006C77.5846 18.8111 77.415 19.4353 77.0792 19.9499C76.7418 20.4645 76.2631 20.8613 75.6447 21.1435C75.0247 21.4257 74.2867 21.5668 73.4307 21.5668H70.5068L71.5174 20.5708V24.2013H69.29V24.1996ZM71.5158 20.8164L70.5051 19.7656H73.306C73.9792 19.7656 74.4895 19.6195 74.8369 19.329C75.1843 19.0385 75.3555 18.6285 75.3555 18.1006C75.3555 17.5727 75.1826 17.166 74.8369 16.8788C74.4912 16.5916 73.9809 16.4489 73.306 16.4489H70.5051L71.5158 15.398V20.8148V20.8164Z" fill="black"/>
<path d="M79.4546 24.1996V14.6477H86.682V16.4223H81.6537V22.4267H86.8598V24.2013H79.4546V24.1996ZM81.4908 20.2155V18.4824H86.0952V20.2155H81.4908Z" fill="black"/>
<path d="M88.9243 24.1996V14.6477H93.0101C94.3399 14.6477 95.3738 14.9548 96.1118 15.569C96.8498 16.1832 97.2188 17.0266 97.2188 18.1006C97.2188 18.8194 97.051 19.4353 96.7135 19.9499C96.3761 20.4645 95.8974 20.8546 95.279 21.1236C94.659 21.3925 93.921 21.5269 93.0649 21.5269H90.1411L91.1517 20.5724V24.2029H88.9243V24.1996ZM91.1517 20.8164L90.1411 19.7656H92.9419C93.6151 19.7656 94.1254 19.6195 94.4728 19.329C94.8186 19.0385 94.9915 18.6285 94.9915 18.1006C94.9915 17.5727 94.8186 17.166 94.4728 16.8788C94.1271 16.5916 93.6168 16.4489 92.9419 16.4489H90.1411L91.1517 15.398V20.8148V20.8164ZM95.0181 24.1996L92.6128 20.7334H94.9898L97.395 24.1996H95.0181Z" fill="black"/>
<path d="M49.1355 38.144V28.592H55.6947V29.4652H50.1478V38.144H49.1372H49.1355ZM50.0364 34.0918V33.2186H55.0913V34.0918H50.0364Z" fill="black"/>
<path d="M62.1425 38.227C61.4228 38.227 60.7562 38.1075 60.1412 37.8651C59.5262 37.6244 58.9942 37.2824 58.5421 36.8409C58.0916 36.3993 57.7409 35.8863 57.4899 35.2987C57.2389 34.711 57.1143 34.0686 57.1143 33.368C57.1143 32.6675 57.2389 32.0234 57.4899 31.4374C57.7409 30.8497 58.0916 30.3368 58.5421 29.8952C58.9926 29.4536 59.5228 29.1133 60.1345 28.8726C60.7446 28.6319 61.4144 28.5107 62.1425 28.5107C62.8706 28.5107 63.5271 28.6319 64.1372 28.8726C64.7472 29.1133 65.2775 29.452 65.7296 29.8886C66.1801 30.3252 66.5308 30.8398 66.7818 31.4308C67.0328 32.0217 67.1574 32.6675 67.1574 33.368C67.1574 34.0686 67.0328 34.7143 66.7818 35.3053C66.5308 35.8963 66.1801 36.4109 65.7296 36.8475C65.2791 37.2841 64.7472 37.6227 64.1372 37.8634C63.5271 38.1042 62.8622 38.2253 62.1425 38.2253V38.227ZM62.1425 37.3256C62.716 37.3256 63.2462 37.2277 63.7349 37.0318C64.2219 36.8359 64.6458 36.5587 65.0049 36.1984C65.3639 35.8399 65.6448 35.4199 65.8459 34.9434C66.0471 34.4653 66.1468 33.9408 66.1468 33.368C66.1468 32.7953 66.0471 32.2691 65.8459 31.7927C65.6448 31.3146 65.3656 30.8962 65.0049 30.5377C64.6442 30.1791 64.2219 29.9019 63.7349 29.706C63.2479 29.5101 62.7176 29.4121 62.1425 29.4121C61.5674 29.4121 61.0355 29.5101 60.5434 29.706C60.0514 29.9019 59.6226 30.1791 59.2585 30.5377C58.8945 30.8979 58.6119 31.3162 58.4108 31.7927C58.2097 32.2708 58.1099 32.7953 58.1099 33.368C58.1099 33.9408 58.2097 34.4554 58.4108 34.9368C58.6119 35.4199 58.8928 35.8399 59.2585 36.1984C59.6226 36.5587 60.0514 36.8359 60.5434 37.0318C61.0355 37.2277 61.569 37.3256 62.1425 37.3256Z" fill="black"/>
<path d="M73.8793 38.2269C73.1596 38.2269 72.4947 38.1074 71.8847 37.865C71.2746 37.6243 70.746 37.2857 70.2989 36.8491C69.8518 36.4125 69.5043 35.8995 69.2534 35.3069C69.0024 34.7159 68.8777 34.0702 68.8777 33.3696C68.8777 32.6691 69.0024 32.0233 69.2534 31.4324C69.5043 30.8414 69.8551 30.3268 70.3055 29.8902C70.756 29.4536 71.2863 29.1149 71.898 28.8742C72.508 28.6335 73.1729 28.5123 73.8926 28.5123C74.6124 28.5123 75.2357 28.6285 75.8458 28.8609C76.4558 29.0933 76.9711 29.4403 77.39 29.9051L76.7483 30.5459C76.3561 30.1458 75.9239 29.857 75.4501 29.6793C74.9764 29.5017 74.4661 29.4137 73.9192 29.4137C73.3458 29.4137 72.8122 29.5117 72.3202 29.7076C71.8281 29.9035 71.3993 30.1807 71.0353 30.5392C70.6712 30.8995 70.3853 31.3178 70.1809 31.7942C69.9764 32.2723 69.8734 32.7969 69.8734 33.3696C69.8734 33.9423 69.9764 34.4686 70.1809 34.945C70.3853 35.4231 70.6712 35.8414 71.0353 36.2C71.3993 36.5602 71.8281 36.8375 72.3202 37.0334C72.8122 37.2292 73.3458 37.3272 73.9192 37.3272C74.4927 37.3272 74.9764 37.2359 75.4501 37.0549C75.9239 36.8723 76.3561 36.5818 76.7483 36.1818L77.39 36.8225C76.9711 37.2857 76.4558 37.6376 75.8458 37.8733C75.2357 38.1107 74.5791 38.2286 73.8777 38.2286L73.8793 38.2269Z" fill="black"/>
<path d="M83.5668 38.227C82.3467 38.227 81.386 37.8767 80.6845 37.1762C79.9831 36.4757 79.6323 35.4381 79.6323 34.0653V28.5938H80.643V34.0254C80.643 35.1526 80.8973 35.9859 81.4076 36.5221C81.9179 37.0583 82.6376 37.3273 83.5668 37.3273C84.496 37.3273 85.229 37.0583 85.7394 36.5221C86.2497 35.9859 86.504 35.1526 86.504 34.0254V28.5938H87.488V34.0653C87.488 35.4398 87.1389 36.4757 86.4425 37.1762C85.746 37.8767 84.7869 38.227 83.5668 38.227Z" fill="black"/>
<path d="M93.4738 38.2269C92.7641 38.2269 92.0825 38.1107 91.4309 37.8783C90.7793 37.6459 90.2757 37.3487 89.9216 36.9852L90.3172 36.2066C90.6547 36.5337 91.1068 36.8092 91.677 37.0317C92.2454 37.2541 92.8455 37.3653 93.4738 37.3653C94.1021 37.3653 94.5642 37.2906 94.9432 37.1396C95.3206 36.9902 95.5998 36.7876 95.776 36.532C95.9539 36.278 96.042 35.9958 96.042 35.6854C96.042 35.3119 95.9356 35.0131 95.7212 34.784C95.5067 34.5565 95.2275 34.3773 94.8801 34.2444C94.5343 34.1133 94.152 33.9971 93.7331 33.8958C93.3142 33.7962 92.8954 33.6883 92.4765 33.5754C92.0576 33.4609 91.672 33.3098 91.3212 33.1189C90.9705 32.928 90.6879 32.6757 90.4735 32.362C90.2591 32.0482 90.1527 31.6365 90.1527 31.1269C90.1527 30.6538 90.2774 30.2188 90.5283 29.8237C90.7793 29.4287 91.1633 29.1099 91.6836 28.8692C92.2022 28.6285 92.8671 28.5073 93.6783 28.5073C94.2152 28.5073 94.7488 28.582 95.2773 28.7331C95.8059 28.8825 96.2614 29.09 96.6437 29.3539L96.3013 30.1591C95.8907 29.8868 95.4569 29.686 94.9964 29.5581C94.536 29.4303 94.0922 29.3672 93.665 29.3672C93.0915 29.3672 92.6178 29.4453 92.2438 29.5996C91.8698 29.754 91.5938 29.9615 91.4176 30.2205C91.2398 30.4795 91.1517 30.7733 91.1517 31.1003C91.1517 31.4738 91.2581 31.7743 91.4725 32.0017C91.6869 32.2292 91.9695 32.4068 92.3202 32.5346C92.671 32.6624 93.0549 32.7753 93.4755 32.8749C93.8944 32.9745 94.3116 33.0841 94.7255 33.2019C95.1394 33.3198 95.5217 33.4725 95.8741 33.6585C96.2248 33.8444 96.5074 34.0934 96.7218 34.4022C96.9362 34.7109 97.0426 35.116 97.0426 35.6173C97.0426 36.0805 96.9146 36.5104 96.6603 36.9072C96.4043 37.3023 96.0154 37.621 95.4918 37.8617C94.9682 38.1024 94.2966 38.2236 93.4771 38.2236L93.4738 38.2269Z" fill="black"/>
<path d="M99.541 38.144V28.592H106.1V29.4652H100.553V37.2708H106.306V38.144H99.5427H99.541ZM100.442 33.7232V32.8633H105.498V33.7232H100.442Z" fill="black"/>
<path d="M108.982 38.144V28.592H112.877C113.898 28.592 114.792 28.7946 115.562 29.1996C116.331 29.6047 116.93 30.1658 117.358 30.8846C117.787 31.6034 118 32.4317 118 33.368C118 34.3043 117.786 35.1326 117.358 35.8514C116.93 36.5702 116.331 37.1313 115.562 37.5364C114.792 37.9414 113.896 38.144 112.877 38.144H108.982ZM109.993 37.2708H112.822C113.67 37.2708 114.405 37.1048 115.03 36.7728C115.653 36.4407 116.138 35.9809 116.484 35.3949C116.83 34.8089 117.003 34.1333 117.003 33.368C117.003 32.6027 116.83 31.9171 116.484 31.3344C116.138 30.7518 115.653 30.2952 115.03 29.9632C114.406 29.6312 113.67 29.4652 112.822 29.4652H109.993V37.2708Z" fill="black"/>
</svg>
