<svg width="14" height="14" viewBox="0 0 14 14" fill="none" xmlns="http://www.w3.org/2000/svg">
<g clip-path="url(#clip0_650_2627)">
<path d="M6.99984 12.8333C10.2215 12.8333 12.8332 10.2217 12.8332 6.99999C12.8332 3.77833 10.2215 1.16666 6.99984 1.16666C3.77818 1.16666 1.1665 3.77833 1.1665 6.99999C1.1665 10.2217 3.77818 12.8333 6.99984 12.8333Z" stroke="black" stroke-linecap="round" stroke-linejoin="round"/>
<path d="M9.33317 4.66666H5.83317C5.52375 4.66666 5.22701 4.78957 5.00821 5.00837C4.78942 5.22716 4.6665 5.5239 4.6665 5.83332C4.6665 6.14274 4.78942 6.43949 5.00821 6.65828C5.22701 6.87707 5.52375 6.99999 5.83317 6.99999H8.1665C8.47592 6.99999 8.77267 7.12291 8.99146 7.3417C9.21025 7.56049 9.33317 7.85724 9.33317 8.16666C9.33317 8.47608 9.21025 8.77282 8.99146 8.99161C8.77267 9.21041 8.47592 9.33332 8.1665 9.33332H4.6665" stroke="black" stroke-linecap="round" stroke-linejoin="round"/>
<path d="M7 10.5V3.5" stroke="black" stroke-linecap="round" stroke-linejoin="round"/>
</g>
<defs>
<clipPath id="clip0_650_2627">
<rect width="14" height="14" fill="white"/>
</clipPath>
</defs>
</svg>
