<svg width="14" height="14" viewBox="0 0 14 14" fill="none" xmlns="http://www.w3.org/2000/svg">
<g clip-path="url(#clip0_650_2290)">
<path d="M11.6665 3.5H2.33317C1.68884 3.5 1.1665 4.02233 1.1665 4.66667V9.33333C1.1665 9.97767 1.68884 10.5 2.33317 10.5H11.6665C12.3108 10.5 12.8332 9.97767 12.8332 9.33333V4.66667C12.8332 4.02233 12.3108 3.5 11.6665 3.5Z" stroke="#00A890" stroke-linecap="round" stroke-linejoin="round"/>
<path d="M7.00016 8.16666C7.64449 8.16666 8.16683 7.64433 8.16683 6.99999C8.16683 6.35566 7.64449 5.83333 7.00016 5.83333C6.35583 5.83333 5.8335 6.35566 5.8335 6.99999C5.8335 7.64433 6.35583 8.16666 7.00016 8.16666Z" stroke="#00A890" stroke-linecap="round" stroke-linejoin="round"/>
<path d="M3.5 7H3.50583M10.5 7H10.5058" stroke="#00A890" stroke-linecap="round" stroke-linejoin="round"/>
</g>
<defs>
<clipPath id="clip0_650_2290">
<rect width="14" height="14" fill="white"/>
</clipPath>
</defs>
</svg>
