<svg width="53" height="65" viewBox="0 0 53 65" fill="none" xmlns="http://www.w3.org/2000/svg">
<path d="M32.7311 5.6051V39.603C25.1432 44.0537 17.5553 48.5043 9.96747 52.9573L9.97702 19.0569L32.7311 5.60748V5.6051Z" fill="#000E0A"/>
<path d="M9.96745 53.4328C9.88622 53.4328 9.80499 53.4114 9.73093 53.371C9.5828 53.2854 9.48962 53.1285 9.48962 52.9573L9.49918 19.0569C9.49918 18.8881 9.58758 18.7335 9.73331 18.6479L32.4873 5.19855C32.6355 5.11058 32.8194 5.1082 32.9676 5.19379C33.1157 5.27938 33.2089 5.43629 33.2089 5.60747V39.6054C33.2089 39.7742 33.1205 39.9287 32.9747 40.0143L10.2111 53.3686C10.1371 53.4114 10.0535 53.4352 9.96745 53.4352V53.4328ZM10.4548 19.3279L10.4453 52.1252L32.2532 39.332V6.44197L10.4548 19.3279Z" fill="#000E0A"/>
<path d="M0.477844 13.3247C7.9797 9.04054 15.4839 4.7587 22.9858 0.474487C26.235 2.18389 29.4818 3.89568 32.731 5.60508L9.97701 19.0545L0.477844 13.3247Z" fill="white"/>
<path d="M9.97699 19.5325C9.89098 19.5325 9.80497 19.5088 9.72852 19.4636L0.229356 13.7315C0.0860085 13.6435 0 13.4866 0 13.3178C0 13.149 0.0931759 12.9945 0.238913 12.9113L22.7493 0.0633834C22.8902 -0.0174508 23.0646 -0.0222057 23.2104 0.056251L32.9556 5.18685C33.1085 5.26768 33.2065 5.42459 33.2089 5.59577C33.2136 5.76695 33.1228 5.92862 32.9747 6.01659L10.2207 19.466C10.1466 19.5111 10.0606 19.5325 9.97699 19.5325ZM1.41914 13.3345L9.98177 18.5007L31.7563 5.62906L22.9953 1.01675L1.41914 13.3345Z" fill="#000E0A"/>
<path d="M51.8441 30.8063L43.2432 25.3381L35.7175 31.4839L38.2261 38.652L51.8441 30.8063Z" fill="white"/>
<path d="M38.2261 39.1275C38.1687 39.1275 38.1138 39.118 38.0588 39.0989C37.925 39.049 37.8199 38.9444 37.7745 38.8089L35.2659 31.6408C35.199 31.453 35.2588 31.2437 35.4141 31.1177L42.9398 24.972C43.0999 24.8412 43.3269 24.8269 43.5013 24.9387L52.1021 30.4069C52.2431 30.4972 52.3267 30.6518 52.3219 30.8182C52.3171 30.9846 52.2287 31.1368 52.083 31.22L38.465 39.0656C38.3909 39.1084 38.3097 39.1298 38.2261 39.1298V39.1275ZM36.2789 31.6432L38.4889 37.953L50.9267 30.7873L43.2791 25.9253L36.2789 31.6408V31.6432Z" fill="#000E0A"/>
<path d="M37.9871 58.8605C35.0413 60.5248 32.0931 62.189 29.1473 63.8532V29.8553C36.7137 25.4166 44.2777 20.9802 51.844 16.5415V24.8626L38.226 32.7083V38.652L51.844 30.8063V38.8897L38.1113 46.6617C38.0707 50.7272 38.0277 54.7951 37.9871 58.8605Z" fill="#00A890"/>
<path d="M29.1473 64.3288C29.0637 64.3288 28.9801 64.3074 28.906 64.2646C28.7579 64.179 28.6695 64.0221 28.6695 63.8533V29.8553C28.6695 29.6865 28.7579 29.532 28.9036 29.4464L51.6003 16.1325C51.7484 16.047 51.93 16.0446 52.0805 16.1302C52.2287 16.2158 52.3218 16.3727 52.3218 16.5438V24.865C52.3218 25.0338 52.2311 25.1907 52.0829 25.2763L38.7038 32.9841V37.8294L51.6051 30.3974C51.7532 30.3118 51.9348 30.3118 52.0829 30.3974C52.2311 30.483 52.3218 30.6399 52.3218 30.8087V38.8921C52.3218 39.0633 52.2287 39.2202 52.0805 39.3058L38.5868 46.9423L38.4649 58.8701C38.4649 59.0389 38.3717 59.1958 38.2236 59.279L29.3838 64.2717C29.3098 64.3121 29.2286 64.3335 29.1473 64.3335V64.3288ZM29.6251 30.1288V63.0378L37.5116 58.5824L37.6335 46.6546C37.6335 46.4858 37.7267 46.3289 37.8748 46.2457L51.3638 38.6116V31.6289L38.4625 39.0609C38.3144 39.1465 38.1328 39.1465 37.9847 39.0609C37.8366 38.9753 37.7458 38.8184 37.7458 38.6496V32.7059C37.7458 32.5371 37.8366 32.3802 37.9847 32.2946L51.3638 24.5869V17.3712L29.6228 30.124L29.6251 30.1288Z" fill="#000E0A"/>
<path d="M19.5908 24.2611C27.396 19.946 35.1989 15.6285 43.0042 11.3134C45.95 13.0561 48.8982 14.8011 51.844 16.5438C44.2776 20.9826 36.7136 25.419 29.1473 29.8577C25.9626 27.9914 22.7755 26.1274 19.5908 24.2611Z" fill="white"/>
<path d="M29.1474 30.3308C29.0637 30.3308 28.9801 30.3094 28.9061 30.2642L19.3496 24.6676C19.2014 24.5821 19.113 24.4228 19.113 24.2516C19.113 24.0804 19.2086 23.9235 19.3591 23.8427L42.7726 10.8949C42.9207 10.8117 43.1023 10.8141 43.248 10.9021L52.0878 16.1325C52.2335 16.2181 52.3219 16.375 52.3219 16.5414C52.3219 16.7078 52.2311 16.8648 52.0878 16.9504L29.3911 30.2642C29.317 30.307 29.2334 30.3308 29.1474 30.3308ZM20.5537 24.273L29.1474 29.3061L50.9075 16.5414L42.9971 11.8602L20.5537 24.273Z" fill="#000E0A"/>
<path d="M29.0518 29.9125C29.047 41.2126 29.0446 52.5151 29.0422 63.8153C25.891 62.0179 22.7421 60.2229 19.5908 58.4255V44.3057C16.3846 42.4227 13.1784 40.5398 9.9722 38.6544C9.9722 43.4213 9.96982 48.1905 9.96743 52.9573C6.81856 51.16 3.6673 49.365 0.518433 47.5676V13.4033C3.67208 15.2886 6.82572 17.1716 9.97698 19.0569C9.97698 23.0843 9.97459 27.1118 9.97459 31.1392C13.1808 32.9865 16.3846 34.8362 19.5908 36.6811V24.2612C22.7445 26.1442 25.8981 28.0295 29.0518 29.9125Z" fill="white"/>
<path d="M29.0422 64.2907C28.961 64.2907 28.8773 64.2693 28.8057 64.2289L19.3543 58.8392C19.2062 58.7536 19.113 58.5967 19.113 58.4255V44.5767C16.2245 42.8816 13.3385 41.184 10.45 39.4865C10.45 43.9752 10.4476 48.4663 10.4452 52.9573C10.4452 53.1261 10.3544 53.283 10.2063 53.3686C10.0582 53.4542 9.87662 53.4542 9.7285 53.3686L5.10792 50.732C3.49765 49.8143 1.88977 48.8966 0.279501 47.9789C0.131375 47.8933 0.0405884 47.7364 0.0405884 47.5676V13.4032C0.0405884 13.232 0.133764 13.0728 0.284279 12.9895C0.434794 12.904 0.618757 12.9087 0.764494 12.9967L4.33385 15.1293C6.29771 16.3037 8.25918 17.4758 10.223 18.6503C10.3664 18.7359 10.4548 18.8904 10.4548 19.0569V30.8658L13.919 32.8652C15.6511 33.8638 17.3809 34.8623 19.113 35.8585V24.2635C19.113 24.0924 19.2062 23.9331 19.3543 23.8499C19.5048 23.7643 19.6888 23.7666 19.8345 23.857L29.2954 29.5083C29.4388 29.5938 29.5272 29.7484 29.5272 29.9172C29.5224 40.1879 29.52 50.461 29.5176 60.7317V63.82C29.5176 63.9888 29.4268 64.1457 29.2787 64.2313C29.2047 64.2741 29.121 64.2955 29.0398 64.2955L29.0422 64.2907ZM20.0686 58.1497L28.5644 62.995V60.7269C28.5668 50.5442 28.5691 40.3614 28.5739 30.1811L20.0686 25.1004V36.6811C20.0686 36.8499 19.9778 37.0092 19.8297 37.0924C19.6816 37.178 19.5 37.178 19.3519 37.0924C17.3809 35.9583 15.4098 34.8219 13.4412 33.6855L9.73566 31.5505C9.58754 31.4649 9.49675 31.308 9.49675 31.1392V19.3255C7.61412 18.1986 5.7291 17.0717 3.84169 15.9447L0.996239 14.2448V47.2942C2.52528 48.1667 4.05432 49.0392 5.58336 49.9094L9.48958 52.1371C9.48958 47.6436 9.49436 43.1478 9.49436 38.6544C9.49436 38.4832 9.58754 38.3263 9.73566 38.2407C9.88379 38.1551 10.0678 38.1575 10.2159 38.2455C13.4221 40.1308 16.6283 42.0138 19.8345 43.8967C19.9802 43.9823 20.0686 44.1369 20.0686 44.3057V58.1497Z" fill="#000E0A"/>
</svg>
