<svg width="24" height="24" viewBox="0 0 24 24" fill="none" xmlns="http://www.w3.org/2000/svg">
<path d="M10.1104 18L13.1104 15L10.1104 12" stroke="#F38508" stroke-width="2" stroke-linecap="round" stroke-linejoin="round"/>
<path d="M14.1104 2V6C14.1104 6.53043 14.3211 7.03914 14.6961 7.41421C15.0712 7.78929 15.5799 8 16.1104 8H20.1104" stroke="#F38508" stroke-width="2" stroke-linecap="round" stroke-linejoin="round"/>
<path d="M4.11035 11V4C4.11035 3.46957 4.32107 2.96086 4.69614 2.58579C5.07121 2.21071 5.57992 2 6.11035 2H15.1104L20.1104 7V20C20.1104 20.5304 19.8996 21.0391 19.5246 21.4142C19.1495 21.7893 18.6408 22 18.1104 22H6.11035C5.57992 22 5.07121 21.7893 4.69614 21.4142C4.32107 21.0391 4.11035 20.5304 4.11035 20V17C4.11035 16.4696 4.32107 15.9609 4.69614 15.5858C5.07121 15.2107 5.57992 15 6.11035 15H13.1104" stroke="#F38508" stroke-width="2" stroke-linecap="round" stroke-linejoin="round"/>
</svg>
