<svg width="23" height="23" viewBox="0 0 23 23" fill="none" xmlns="http://www.w3.org/2000/svg">
<path d="M15.3333 13.4167V15.525L16.8666 16.4833" stroke="#00A890" stroke-width="1.5" stroke-linecap="round" stroke-linejoin="round"/>
<path d="M15.3333 3.83334H17.2499C17.7583 3.83334 18.2458 4.03527 18.6052 4.39471C18.9647 4.75416 19.1666 5.24167 19.1666 5.75V6.54734" stroke="#00A890" stroke-width="1.5" stroke-linecap="round" stroke-linejoin="round"/>
<path d="M7.66659 3.83334H5.74992C5.24159 3.83334 4.75408 4.03527 4.39463 4.39471C4.03519 4.75416 3.83325 5.24167 3.83325 5.75V19.1667C3.83325 19.675 4.03519 20.1625 4.39463 20.522C4.75408 20.8814 5.24159 21.0833 5.74992 21.0833H7.66659" stroke="#00A890" stroke-width="1.5" stroke-linecap="round" stroke-linejoin="round"/>
<path d="M15.3333 21.0833C18.5089 21.0833 21.0833 18.509 21.0833 15.3333C21.0833 12.1577 18.5089 9.58334 15.3333 9.58334C12.1576 9.58334 9.58325 12.1577 9.58325 15.3333C9.58325 18.509 12.1576 21.0833 15.3333 21.0833Z" stroke="#00A890" stroke-width="1.5" stroke-linecap="round" stroke-linejoin="round"/>
<path d="M14.3751 1.91666H8.62508C8.09581 1.91666 7.66675 2.34572 7.66675 2.875V4.79166C7.66675 5.32094 8.09581 5.75 8.62508 5.75H14.3751C14.9044 5.75 15.3334 5.32094 15.3334 4.79166V2.875C15.3334 2.34572 14.9044 1.91666 14.3751 1.91666Z" stroke="#00A890" stroke-width="1.5" stroke-linecap="round" stroke-linejoin="round"/>
</svg>
