<svg width="14" height="14" viewBox="0 0 14 14" fill="none" xmlns="http://www.w3.org/2000/svg">
<path d="M6.4165 5.83334V8.16668H8.74984" stroke="#00A890" stroke-linecap="round" stroke-linejoin="round"/>
<path d="M6.4165 8.16667L7.31192 7.23042C7.64678 6.90859 8.05364 6.67138 8.49867 6.53853C8.9437 6.40568 9.41402 6.38102 9.8705 6.46661C10.327 6.5522 10.7564 6.74556 11.1231 7.03061C11.4898 7.31566 11.7831 7.68414 11.9786 8.10542" stroke="#00A890" stroke-linecap="round" stroke-linejoin="round"/>
<path d="M9.3335 1.16666V3.49999" stroke="#00A890" stroke-linecap="round" stroke-linejoin="round"/>
<path d="M12.2501 10.5L11.3547 11.4362C11.0198 11.7581 10.6129 11.9953 10.1679 12.1281C9.72288 12.261 9.25256 12.2856 8.79608 12.2001C8.3396 12.1145 7.91016 11.9211 7.54349 11.6361C7.17681 11.351 6.88351 10.9825 6.68799 10.5612" stroke="#00A890" stroke-linecap="round" stroke-linejoin="round"/>
<path d="M12.2498 12.8333V10.5H9.9165" stroke="#00A890" stroke-linecap="round" stroke-linejoin="round"/>
<path d="M12.25 4.95834V3.50001C12.25 3.19059 12.1271 2.89384 11.9083 2.67505C11.6895 2.45626 11.3928 2.33334 11.0833 2.33334H2.91667C2.60725 2.33334 2.3105 2.45626 2.09171 2.67505C1.87292 2.89384 1.75 3.19059 1.75 3.50001V11.6667C1.75 11.9761 1.87292 12.2728 2.09171 12.4916C2.3105 12.7104 2.60725 12.8333 2.91667 12.8333H5.425" stroke="#00A890" stroke-linecap="round" stroke-linejoin="round"/>
<path d="M1.75 5.83334H4.08333" stroke="#00A890" stroke-linecap="round" stroke-linejoin="round"/>
<path d="M4.6665 1.16666V3.49999" stroke="#00A890" stroke-linecap="round" stroke-linejoin="round"/>
</svg>
