<svg width="24" height="24" viewBox="0 0 24 24" fill="none" xmlns="http://www.w3.org/2000/svg">
<path d="M16.1104 14V16.2L17.7104 17.2" stroke="#00A890" stroke-width="2" stroke-linecap="round" stroke-linejoin="round"/>
<path d="M16.1104 2V6" stroke="#00A890" stroke-width="2" stroke-linecap="round" stroke-linejoin="round"/>
<path d="M21.1104 7.5V6C21.1104 5.46957 20.8996 4.96086 20.5246 4.58579C20.1495 4.21071 19.6408 4 19.1104 4H5.11035C4.57992 4 4.07121 4.21071 3.69614 4.58579C3.32107 4.96086 3.11035 5.46957 3.11035 6V20C3.11035 20.5304 3.32107 21.0391 3.69614 21.4142C4.07121 21.7893 4.57992 22 5.11035 22H8.61035" stroke="#00A890" stroke-width="2" stroke-linecap="round" stroke-linejoin="round"/>
<path d="M3.11035 10H8.11035" stroke="#00A890" stroke-width="2" stroke-linecap="round" stroke-linejoin="round"/>
<path d="M8.11035 2V6" stroke="#00A890" stroke-width="2" stroke-linecap="round" stroke-linejoin="round"/>
<path d="M16.1104 22C19.4241 22 22.1104 19.3137 22.1104 16C22.1104 12.6863 19.4241 10 16.1104 10C12.7966 10 10.1104 12.6863 10.1104 16C10.1104 19.3137 12.7966 22 16.1104 22Z" stroke="#00A890" stroke-width="2" stroke-linecap="round" stroke-linejoin="round"/>
</svg>
