<svg width="24" height="24" viewBox="0 0 24 24" fill="none" xmlns="http://www.w3.org/2000/svg">
<path d="M15.1104 2H6.11035C5.57992 2 5.07121 2.21071 4.69614 2.58579C4.32107 2.96086 4.11035 3.46957 4.11035 4V20C4.11035 20.5304 4.32107 21.0391 4.69614 21.4142C5.07121 21.7893 5.57992 22 6.11035 22H18.1104C18.6408 22 19.1495 21.7893 19.5246 21.4142C19.8996 21.0391 20.1104 20.5304 20.1104 20V7L15.1104 2Z" stroke="#00B50C" stroke-width="2" stroke-linecap="round" stroke-linejoin="round"/>
<path d="M14.1104 2V6C14.1104 6.53043 14.3211 7.03914 14.6961 7.41421C15.0712 7.78929 15.5799 8 16.1104 8H20.1104" stroke="#00B50C" stroke-width="2" stroke-linecap="round" stroke-linejoin="round"/>
<path d="M9.11035 15L11.1104 17L15.1104 13" stroke="#00B50C" stroke-width="2" stroke-linecap="round" stroke-linejoin="round"/>
</svg>
